<?xml version="1.0" encoding="UTF-8" standalone="no"?>
<!-- Created with Inkscape (http://www.inkscape.org/) -->

<svg
   xmlns:dc="http://purl.org/dc/elements/1.1/"
   xmlns:cc="http://creativecommons.org/ns#"
   xmlns:rdf="http://www.w3.org/1999/02/22-rdf-syntax-ns#"
   xmlns:svg="http://www.w3.org/2000/svg"
   xmlns="http://www.w3.org/2000/svg"
   xmlns:xlink="http://www.w3.org/1999/xlink"
   xmlns:sodipodi="http://sodipodi.sourceforge.net/DTD/sodipodi-0.dtd"
   xmlns:inkscape="http://www.inkscape.org/namespaces/inkscape"
   width="256"
   height="256"
   id="svg2"
   version="1.1"
   inkscape:version="0.48.4 r9939"
   sodipodi:docname="blob-harc-plus.svg">
  <defs
     id="defs4">
    <linearGradient
       id="linearGradient3776">
      <stop
         style="stop-color:#000000;stop-opacity:1;"
         offset="0"
         id="stop3778" />
      <stop
         style="stop-color:#54331f;stop-opacity:1;"
         offset="1"
         id="stop3780" />
    </linearGradient>
    <linearGradient
       id="linearGradient3857">
      <stop
         style="stop-color:#e4e4e4;stop-opacity:1;"
         offset="0"
         id="stop3859" />
      <stop
         style="stop-color:#ffffff;stop-opacity:0;"
         offset="1"
         id="stop3861" />
    </linearGradient>
    <linearGradient
       id="linearGradient3851">
      <stop
         id="stop3853"
         offset="0"
         style="stop-color:#93b9e2;stop-opacity:0.07258064;" />
      <stop
         id="stop3855"
         offset="1"
         style="stop-color:#598bbb;stop-opacity:0.43564355" />
    </linearGradient>
    <linearGradient
       id="linearGradient3841">
      <stop
         style="stop-color:#939393;stop-opacity:0.50806451;"
         offset="0"
         id="stop3843" />
      <stop
         style="stop-color:#e4e4e4;stop-opacity:0.63709676;"
         offset="1"
         id="stop3845" />
    </linearGradient>
    <linearGradient
       id="linearGradient3803">
      <stop
         style="stop-color:#93b9e2;stop-opacity:0.07258064;"
         offset="0"
         id="stop3805" />
      <stop
         style="stop-color:#2783dc;stop-opacity:0.41129032;"
         offset="1"
         id="stop3807" />
    </linearGradient>
    <radialGradient
       inkscape:collect="always"
       xlink:href="#linearGradient3857"
       id="radialGradient3865"
       cx="106.52352"
       cy="179.89107"
       fx="106.52352"
       fy="179.89107"
       r="90.318748"
       gradientTransform="matrix(1.482952,-0.71162749,0.62878249,1.3103123,-164.5581,21.777838)"
       gradientUnits="userSpaceOnUse" />
    <filter
       inkscape:collect="always"
       id="filter3911">
      <feGaussianBlur
         inkscape:collect="always"
         stdDeviation="2.0428865"
         id="feGaussianBlur3913" />
    </filter>
    <linearGradient
       inkscape:collect="always"
       xlink:href="#linearGradient3776"
       id="linearGradient3782"
       x1="154.00529"
       y1="231.35715"
       x2="218.13757"
       y2="158.5"
       gradientUnits="userSpaceOnUse" />
    <linearGradient
       inkscape:collect="always"
       xlink:href="#linearGradient3776-6"
       id="linearGradient3782-3"
       x1="154.00529"
       y1="231.35715"
       x2="218.13757"
       y2="158.5"
       gradientUnits="userSpaceOnUse" />
    <linearGradient
       id="linearGradient3776-6">
      <stop
         style="stop-color:#828282;stop-opacity:1;"
         offset="0"
         id="stop3778-5" />
      <stop
         style="stop-color:#d6ffd6;stop-opacity:1;"
         offset="1"
         id="stop3780-4" />
    </linearGradient>
    <linearGradient
       y2="158.5"
       x2="218.13757"
       y1="231.35715"
       x1="154.00529"
       gradientUnits="userSpaceOnUse"
       id="linearGradient3799"
       xlink:href="#linearGradient3776-6"
       inkscape:collect="always" />
    <filter
       inkscape:collect="always"
       id="filter3907"
       x="-0.13952921"
       width="1.2790584"
       y="-0.13931187"
       height="1.2786237">
      <feGaussianBlur
         inkscape:collect="always"
         stdDeviation="2.7550353"
         id="feGaussianBlur3909" />
    </filter>
    <filter
       inkscape:collect="always"
       id="filter3959"
       x="-0.20109433"
       width="1.4021887"
       y="-0.43397678"
       height="1.8679536">
      <feGaussianBlur
         inkscape:collect="always"
         stdDeviation="2.7013883"
         id="feGaussianBlur3961" />
    </filter>
  </defs>
  <sodipodi:namedview
     id="base"
     pagecolor="#ffffff"
     bordercolor="#666666"
     borderopacity="1.0"
     inkscape:pageopacity="0.0"
     inkscape:pageshadow="2"
     inkscape:zoom="0.12374369"
     inkscape:cx="151.64266"
     inkscape:cy="83.61544"
     inkscape:document-units="px"
     inkscape:current-layer="g3811"
     showgrid="false"
     width="256px"
     inkscape:window-width="1366"
     inkscape:window-height="719"
     inkscape:window-x="0"
     inkscape:window-y="23"
     inkscape:window-maximized="1" />
  <metadata
     id="metadata7">
    <rdf:RDF>
      <cc:Work
         rdf:about="">
        <dc:format>image/svg+xml</dc:format>
        <dc:type
           rdf:resource="http://purl.org/dc/dcmitype/StillImage" />
        <dc:title></dc:title>
      </cc:Work>
    </rdf:RDF>
  </metadata>
  <g
     inkscape:label="Layer 1"
     inkscape:groupmode="layer"
     id="layer1"
     transform="translate(0,-796.3622)">
    <g
       id="g3811"
       transform="matrix(1.3299618,0,0,1.3299618,-52.197147,-296.35348)">
      <path
         id="path2985"
         d="m 101.78125,32.78125 c -28.403214,0 -51.4375,23.593929 -51.4375,52.6875 0,18.11763 8.934575,34.11399 22.53125,43.59375 -4.984863,8.11484 -7.875,17.70441 -7.875,28 0,29.09357 23.034286,52.6875 51.4375,52.6875 25.52719,0 46.69057,-19.05279 50.71875,-44.03125 1.06114,0.0669 2.10991,0.0937 3.1875,0.0937 28.40321,0 51.4375,-23.56268 51.4375,-52.65625 0,-29.093571 -23.03429,-52.6875 -51.4375,-52.6875 -7.52496,0 -14.65189,1.650292 -21.09375,4.625 -7.7772,-18.975964 -26.11778,-32.3125 -47.46875,-32.3125 z"
         style="fill:url(#radialGradient3865);fill-opacity:1;stroke:#d1d1d1;stroke-width:9.19999980999999956;stroke-linecap:butt;stroke-linejoin:round;stroke-miterlimit:4;stroke-opacity:1;stroke-dasharray:none;"
         inkscape:connector-curvature="0"
         transform="translate(0,796.3622)"
         inkscape:transform-center-x="-31.785714"
         inkscape:transform-center-y="57.142857" />
      <path
         id="path2985-5"
         d="m 103.298,834.53056 c -26.757884,0 -48.457847,22.22719 -48.457847,49.63543 0,17.06811 8.417015,32.13787 21.226067,41.06842 -4.696102,7.64483 -7.41882,16.67893 -7.41882,26.37803 0,27.40827 21.699962,49.63536 48.45786,49.63536 24.04845,0 43.98588,-17.94896 47.78072,-41.4805 0.99966,0.0631 1.98767,0.0885 3.00285,0.0885 26.75787,0 48.45784,-22.19777 48.45784,-49.60603 0,-27.4082 -21.69997,-49.63539 -48.45784,-49.63539 -7.08905,0 -13.80314,1.55468 -19.87183,4.35707 -7.32668,-17.87672 -24.60485,-30.4407 -44.719,-30.4407 z"
         style="fill:none;stroke:#000000;stroke-width:5.79058981000000017;stroke-linecap:butt;stroke-linejoin:round;stroke-miterlimit:4;stroke-opacity:0.51485151;stroke-dasharray:none;filter:url(#filter3911)"
         inkscape:connector-curvature="0" />
      <path
         style="fill:none;stroke:#000000;stroke-width:8.27091408;stroke-linecap:butt;stroke-linejoin:miter;stroke-miterlimit:4;stroke-opacity:1;stroke-dasharray:none"
         d="m 101.52897,880.42291 c -2.093073,39.44796 45.71144,31.7744 53.92699,32.66001 -7.67579,0.51812 -47.49832,12.77115 -37.21722,41.39466"
         id="path3961"
         inkscape:connector-curvature="0"
         sodipodi:nodetypes="ccc" />
      <path
         sodipodi:type="arc"
         style="fill:#757575;fill-opacity:1;stroke:none"
         id="path3934"
         sodipodi:cx="83.337585"
         sodipodi:cy="82.506302"
         sodipodi:rx="25.253813"
         sodipodi:ry="24.496199"
         d="m 108.5914,82.506302 c 0,13.528877 -11.306519,24.496198 -25.253815,24.496198 -13.947295,0 -25.253812,-10.967321 -25.253812,-24.496198 0,-13.528877 11.306517,-24.496199 25.253812,-24.496199 13.947296,0 25.253815,10.967322 25.253815,24.496199 z"
         transform="matrix(0.7519013,0,0,0.7519013,39.247102,818.5762)" />
      <path
         sodipodi:type="arc"
         style="fill:#363636;fill-opacity:1;stroke:none"
         id="path3934-5"
         sodipodi:cx="83.337585"
         sodipodi:cy="82.506302"
         sodipodi:rx="25.253813"
         sodipodi:ry="24.496199"
         d="m 108.5914,82.506302 c 0,13.528877 -11.306519,24.496198 -25.253815,24.496198 -13.947295,0 -25.253812,-10.967321 -25.253812,-24.496198 0,-13.528877 11.306517,-24.496199 25.253812,-24.496199 13.947296,0 25.253815,10.967322 25.253815,24.496199 z"
         transform="matrix(0.7519013,0,0,0.7519013,105.32665,846.86887)" />
      <path
         sodipodi:type="arc"
         style="fill:#1b1b1b;fill-opacity:1;stroke:none"
         id="path3934-1"
         sodipodi:cx="83.337585"
         sodipodi:cy="82.506302"
         sodipodi:rx="25.253813"
         sodipodi:ry="24.496199"
         d="m 108.5914,82.506302 c 0,13.528877 -11.306519,24.496198 -25.253815,24.496198 -13.947295,0 -25.253812,-10.967321 -25.253812,-24.496198 0,-13.528877 11.306517,-24.496199 25.253812,-24.496199 13.947296,0 25.253815,10.967322 25.253815,24.496199 z"
         transform="matrix(0.7519013,0,0,0.7519013,54.817566,892.44097)" />
      <path
         sodipodi:type="arc"
         style="opacity:1;fill:#dd1d00;fill-opacity:1;stroke:url(#linearGradient3782);stroke-width:6.81799995999999986;stroke-linecap:butt;stroke-linejoin:round;stroke-miterlimit:4;stroke-opacity:1;stroke-dasharray:none"
         id="path3004"
         sodipodi:cx="188.92857"
         sodipodi:cy="197.78572"
         sodipodi:rx="48.214287"
         sodipodi:ry="48.214287"
         d="m 237.14286,197.78572 a 48.214287,48.214287 0 1 1 -96.42857,0 48.214287,48.214287 0 1 1 96.42857,0 z"
         transform="matrix(0.7519013,0,0,0.7519013,39.247102,821.61434)" />
      <path
         sodipodi:type="arc"
         style="fill:none;fill-opacity:1;stroke:url(#linearGradient3799);stroke-width:3.41760360000000007;stroke-linecap:butt;stroke-linejoin:round;stroke-miterlimit:4;stroke-opacity:1;stroke-dasharray:none;"
         id="path3004-4"
         sodipodi:cx="188.92857"
         sodipodi:cy="197.78572"
         sodipodi:rx="48.214287"
         sodipodi:ry="48.214287"
         d="m 237.14286,197.78572 a 48.214287,48.214287 0 1 1 -96.42857,0 48.214287,48.214287 0 1 1 96.42857,0 z"
         transform="matrix(0.70380668,0,0,0.70380668,48.333549,831.12676)" />
      <text
         xml:space="preserve"
         style="font-size:65.71260834px;font-style:normal;font-weight:normal;line-height:125%;letter-spacing:0px;word-spacing:0px;opacity:0.77215187;fill:#2a0200;fill-opacity:1;stroke:none;filter:url(#filter3959);font-family:Sans"
         x="156.56383"
         y="1382.5575"
         id="text3826-8"
         sodipodi:linespacing="125%"
         transform="matrix(1.3836874,0,0,0.72270658,-62.300393,-3.2224341)"><tspan
           sodipodi:role="line"
           id="tspan3828-0"
           x="156.56383"
           y="1382.5575"
           style="font-size:105.1401825px;font-weight:bold;fill:#2a0200;fill-opacity:1;-inkscape-font-specification:Sans Bold">-</tspan></text>
      <text
         xml:space="preserve"
         style="font-size:65.71260834000000273px;font-style:normal;font-weight:normal;line-height:125%;letter-spacing:0px;word-spacing:0px;fill:#cfcfcf;fill-opacity:1;stroke:none;font-family:Sans"
         x="108.92558"
         y="1371.8505"
         id="text3826"
         sodipodi:linespacing="125%"
         transform="scale(1.3836874,0.72270658)"><tspan
           sodipodi:role="line"
           id="tspan3828"
           x="108.92558"
           y="1371.8505"
           style="font-size:105.14018249999999455px;font-weight:bold;fill:#cfcfcf;fill-opacity:1;-inkscape-font-specification:Sans Bold">-</tspan></text>
    </g>
  </g>
</svg>
